<svg width="357.514" height="357.514" xmlns="http://www.w3.org/2000/svg">


    <g>
        <title>Layer 1</title>
        <g id="svg_2" fill="white">
            <path
                d="m320.352,65.129c0,-12.128 -9.865,-21.994 -21.994,-21.994l-113.676,0c-4.143,0 -7.5,3.357 -7.5,7.5l0,35.42c0,2.581 1.326,4.982 3.514,6.354c2.186,1.371 4.928,1.523 7.248,0.399c3.305,-1.596 6.857,-2.405 10.561,-2.405c13.408,0 24.318,10.909 24.318,24.318c0,13.408 -10.91,24.317 -24.318,24.317c-3.703,0 -7.256,-0.81 -10.561,-2.405c-2.322,-1.123 -5.063,-0.97 -7.248,0.399c-2.188,1.372 -3.514,3.772 -3.514,6.354l0,27.959l-17.758,0c0.334,-2.073 0.502,-4.184 0.502,-6.324c0,-21.679 -17.639,-39.316 -39.318,-39.316c-21.682,0 -39.318,17.638 -39.318,39.316c0,2.14 0.168,4.25 0.502,6.324l-25.27,0c-4.143,0 -7.5,3.357 -7.5,7.5l0,113.675c0,12.128 9.865,21.994 21.994,21.994l227.344,0c12.127,0 21.992,-9.866 21.992,-21.994l0,-227.391zm-256.33,227.391l0,-106.176l27.92,0c2.58,0 4.98,-1.327 6.352,-3.513c1.373,-2.186 1.523,-4.924 0.402,-7.248c-1.598,-3.308 -2.406,-6.862 -2.406,-10.564c0,-13.408 10.908,-24.316 24.318,-24.316c13.408,0 24.318,10.908 24.318,24.316c0,3.703 -0.811,7.257 -2.406,10.563c-1.123,2.324 -0.971,5.063 0.4,7.248c1.373,2.187 3.771,3.514 6.354,3.514l27.908,0l0,17.768c-2.07,-0.332 -4.176,-0.5 -6.313,-0.5c-0.002,0 -0.004,0 -0.004,0c-0.004,0 -0.006,0 -0.008,0c-21.68,0 -39.316,17.638 -39.316,39.316c0,21.681 17.637,39.318 39.316,39.318c0.002,0 0.004,0 0.008,0c0,0 0.002,0 0.004,0c2.137,0 4.242,-0.168 6.313,-0.5l0,17.768l-106.166,0c-3.857,0 -6.994,-3.137 -6.994,-6.994zm241.33,0c0,3.857 -3.137,6.994 -6.992,6.994l-106.166,0l0,-27.92c0,-2.581 -1.328,-4.98 -3.514,-6.353c-1.369,-0.858 -2.951,-1.239 -4.514,-1.13c-0.94,0.064 -1.873,0.307 -2.746,0.729c-3.305,1.596 -6.855,2.405 -10.557,2.406c-13.406,-0.004 -24.313,-10.911 -24.313,-24.318c0,-13.406 10.906,-24.313 24.313,-24.316c3.701,0.001 7.252,0.811 10.557,2.406c1.162,0.563 2.43,0.805 3.68,0.734c1.25,-0.068 2.484,-0.448 3.58,-1.136c2.186,-1.372 3.514,-3.771 3.514,-6.353l0,-27.92l17.752,0c-0.33,2.061 -0.496,4.156 -0.496,6.283c0,0.006 0,0.012 0,0.018c0,0.007 0,0.014 0,0.021c0,21.681 17.637,39.318 39.316,39.318c21.68,0 39.318,-17.638 39.318,-39.318c0,-0.014 0,-0.025 0,-0.039c0,-2.127 -0.166,-4.223 -0.496,-6.283l17.764,0l0,106.177zm0,-121.215l-27.92,0c-2.58,0 -4.98,1.327 -6.352,3.514c-0.693,1.104 -1.072,2.348 -1.137,3.609c-0.068,1.248 0.174,2.516 0.734,3.678c1.596,3.305 2.406,6.857 2.406,10.561c-0.022,13.391 -10.922,24.279 -24.318,24.279c-13.4,0 -24.305,-10.898 -24.316,-24.298c0.002,-3.696 0.813,-7.243 2.404,-10.541c0.563,-1.163 0.805,-2.429 0.736,-3.679c-0.064,-1.261 -0.443,-2.506 -1.135,-3.609c-1.373,-2.187 -3.773,-3.514 -6.354,-3.514l-27.92,0l0,-17.77c2.072,0.334 4.182,0.502 6.322,0.502c21.68,0 39.318,-17.638 39.318,-39.317c0,-21.681 -17.639,-39.318 -39.318,-39.318c-2.141,0 -4.25,0.168 -6.322,0.502l0,-17.77l106.176,0c3.857,0 6.994,3.138 6.994,6.994l0,106.177l0.002,0z"
                id="svg_3" />
        </g>
    </g>
</svg>