<?xml version="1.0" encoding="iso-8859-1"?>
<!-- Generator: Adobe Illustrator 19.0.0, SVG Export Plug-In . SVG Version: 6.00 Build 0)  -->
<svg version="1.1" class="social_link" xmlns="http://www.w3.org/2000/svg" xmlns:xlink="http://www.w3.org/1999/xlink"
	x="0px" y="0px" viewBox="0 0 512 512" style="enable-background:new 0 0 512 512;" xml:space="preserve">
	<g>
		<g>
			<polygon points="230.346,199.4 256.214,318.137 282.083,199.4 		" />
		</g>
	</g>
	<g>
		<g>
			<path d="M368.265,45.863c-30.947-30.371-71.912-46.62-115.267-45.836C210.388,0.826,170.655,17.94,141.12,48.22
			c-29.548,30.292-45.651,70.441-45.341,113.052c0.263,36.092,12.85,71.133,35.444,99.138
			c25.261,31.312,40.058,70.05,42.233,108.597h66.338l-39.377-180.483c-0.869-3.988,0.116-8.028,2.676-11.207
			c2.561-3.18,6.424-4.899,10.507-4.899h85.231c4.082,0,7.946,1.849,10.507,5.028s3.545,7.09,2.676,11.078l-39.377,180.483h65.874
			c2.201-38.547,17.09-77.271,42.502-108.921c22.707-28.282,35.213-63.631,35.213-100.002
			C416.226,116.781,399.193,76.218,368.265,45.863z" />
		</g>
	</g>
	<g>
		<g>
			<path d="M173.767,395.989v48.065c0,20.895,16.98,38.023,37.875,38.023h6.203C222.261,498.781,237.885,512,256.428,512
			s34.168-13.219,38.583-29.923h5.308c20.895,0,37.915-17.128,37.915-38.023v-48.065H173.767z" />
		</g>
	</g>
	<g>
	</g>
	<g>
	</g>
	<g>
	</g>
	<g>
	</g>
	<g>
	</g>
	<g>
	</g>
	<g>
	</g>
	<g>
	</g>
	<g>
	</g>
	<g>
	</g>
	<g>
	</g>
	<g>
	</g>
	<g>
	</g>
	<g>
	</g>
	<g>
	</g>
</svg>