<svg width="220" height="250" xmlns="http://www.w3.org/2000/svg">
    <!-- Created with Method Draw - http://github.com/duopixel/Method-Draw/ -->
    <g>
        <title>Layer 1</title>
        <g id="svg_4" fill="white">
            <path id="svg_1"
                d="m74.626,214.268c-0.785,0 -1.574,-0.123 -2.334,-0.372c-1.891,-0.619 -3.457,-1.963 -4.357,-3.737l-51.387,-101.402c-2.654,-5.24 -3.111,-11.201 -1.283,-16.785c1.828,-5.584 5.721,-10.121 10.961,-12.776l101.4,-51.387c3.693,-1.867 8.207,-0.394 10.08,3.3l11.422,22.54c1.699,-1.235 3.504,-2.339 5.412,-3.307c5.57,-2.821 11.539,-4.252 17.746,-4.252c14.912,0 28.361,8.259 35.098,21.552c9.801,19.338 2.041,43.044 -17.297,52.844c-1.908,0.968 -3.867,1.771 -5.867,2.41l11.424,22.541c1.873,3.695 0.395,8.208 -3.299,10.08l-31.594,16.012c-2.303,1.168 -5.043,1.067 -7.254,-0.261c-2.213,-1.33 -3.586,-3.703 -3.637,-6.283c-0.07,-3.67 -0.955,-7.207 -2.629,-10.513c-4.166,-8.222 -12.488,-13.33 -21.715,-13.33c-3.83,0 -7.52,0.886 -10.969,2.634c-5.793,2.936 -10.098,7.952 -12.117,14.126c-2.021,6.173 -1.518,12.763 1.418,18.557c1.676,3.305 4.004,6.108 6.922,8.334c2.051,1.565 3.154,4.076 2.918,6.646c-0.234,2.57 -1.775,4.84 -4.078,6.006l-31.594,16.013c-1.06,0.538 -2.224,0.81 -3.39,0.81zm53.09,-169.688l-94.711,47.997c-1.666,0.844 -2.904,2.286 -3.484,4.062c-0.582,1.775 -0.438,3.672 0.408,5.338l47.996,94.712l15.852,-8.034c-1.234,-1.698 -2.338,-3.505 -3.307,-5.414c-4.748,-9.368 -5.563,-20.023 -2.295,-30.005c3.268,-9.98 10.225,-18.092 19.594,-22.84c5.49,-2.782 11.629,-4.253 17.748,-4.253c14.91,0 28.359,8.258 35.096,21.551c0.967,1.91 1.771,3.868 2.41,5.868l15.851,-8.033l-12.623,-24.905c-1.166,-2.303 -1.066,-5.044 0.264,-7.256c1.33,-2.212 3.705,-3.585 6.285,-3.634c3.668,-0.069 7.203,-0.953 10.508,-2.627c11.959,-6.061 16.758,-20.723 10.697,-32.683c-4.168,-8.224 -12.49,-13.333 -21.719,-13.333c-3.828,0 -7.518,0.886 -10.965,2.633c-3.301,1.672 -6.104,4.001 -8.332,6.921c-1.566,2.052 -4.076,3.148 -6.648,2.918c-2.568,-0.235 -4.838,-1.776 -6.004,-4.078l-12.621,-24.905z" />
        </g>
    </g>
</svg>