<svg id="Layer_1" enable-background="new 0 0 510 510" height="512" viewBox="0 0 510 510" width="512" xmlns="http://www.w3.org/2000/svg"><g><path d="m510 140.5c0-27.846-22.654-50.5-50.5-50.5h-99.5v-16c0-24.262-19.738-44-44-44h-122c-24.262 0-44 19.738-44 44v16h-99.5c-27.846 0-50.5 22.654-50.5 50.5v114.5h30v174.5c0 27.846 22.654 50.5 50.5 50.5h349c27.846 0 50.5-22.654 50.5-50.5v-174.5h30zm-330-66.5c0-7.72 6.28-14 14-14h122c7.72 0 14 6.28 14 14v16h-150zm-45 376v-75h165v45h30v-45h45v75zm315-20.5c0 11.304-9.196 20.5-20.5 20.5h-24.5v-105h-300v105h-24.5c-11.304 0-20.5-9.196-20.5-20.5v-174.5h45v15c0 24.813 20.187 45 45 45s45-20.187 45-45v-15h120v15c0 24.813 20.186 45 45 45s45-20.187 45-45v-15h45zm-315-159.5v-45h30v45c0 8.271-6.729 15-15 15s-15-6.729-15-15zm210 0v-45h30v45c0 8.271-6.728 15-15 15s-15-6.729-15-15zm135-45h-75v-30h-90v30h-120v-30h-90v30h-75v-84.5c0-11.304 9.196-20.5 20.5-20.5h409c11.304 0 20.5 9.196 20.5 20.5z"/></g></svg>