<svg id="Capa_1"  viewBox="0 0 512 512" style="enable-background:new 0 0 512 512;" xml:space="preserve"><g><path d="m375 100h122c8.284 0 15-6.716 15-15v-70c0-8.284-6.716-15-15-15h-122c-8.284 0-15 6.716-15 15v20h-65c-8.284 0-15 6.716-15 15v191h-50v-36c0-40.85-25.918-75.759-62.173-89.151 10.683-12.293 17.173-28.322 17.173-45.849 0-38.598-31.402-70-70-70s-70 31.402-70 70c0 17.527 6.49 33.556 17.173 45.849-36.255 13.392-62.173 48.301-62.173 89.151v80c0 19.299 15.701 35 35 35h5v157c0 19.299 15.701 35 35 35h80c19.299 0 35-15.701 35-35v-157h5c19.299 0 35-15.701 35-35v-14h50v191c0 8.284 6.716 15 15 15h65v20c0 8.284 6.716 15 15 15h122c8.284 0 15-6.716 15-15v-70c0-8.284-6.716-15-15-15h-122c-8.284 0-15 6.716-15 15v20h-50v-107.333h50v20c0 8.284 6.716 15 15 15h122c8.284 0 15-6.716 15-15v-70c0-8.284-6.716-15-15-15h-122c-8.284 0-15 6.716-15 15v20h-50v-107.334h50v20c0 8.284 6.716 15 15 15h122c8.284 0 15-6.716 15-15v-70c0-8.284-6.716-15-15-15h-122c-8.284 0-15 6.716-15 15v20h-50v-107.333h50v20c0 8.284 6.716 15 15 15zm15-70h92v40h-92zm-275 0c22.056 0 40 17.944 40 40s-17.944 40-40 40-40-17.944-40-40 17.944-40 40-40zm85 255c0 2.757-2.243 5-5 5h-20c-8.284 0-15 6.716-15 15v172c0 2.757-2.243 5-5 5h-25v-147c0-8.284-6.716-15-15-15s-15 6.716-15 15v147h-25c-2.757 0-5-2.243-5-5v-172c0-8.284-6.716-15-15-15h-20c-2.757 0-5-2.243-5-5v-80c0-35.841 29.159-65 65-65h40c35.841 0 65 29.159 65 65zm190 157h92v40h-92zm0-137.333h92v40h-92zm0-137.334h92v40h-92z"/></g></svg>