<?xml version="1.0" encoding="iso-8859-1"?>
<!-- Generator: Adobe Illustrator 19.0.0, SVG Export Plug-In . SVG Version: 6.00 Build 0)  -->
<svg version="1.1" id="Layer_1" xmlns="http://www.w3.org/2000/svg" xmlns:xlink="http://www.w3.org/1999/xlink" x="0px" y="0px"
	 viewBox="0 0 512 512" style="enable-background:new 0 0 512 512;" xml:space="preserve">
<g>
	<g>
		<circle cx="89.707" cy="427.344" r="18.701"/>
	</g>
</g>
<g>
	<g>
		<path d="M481.616,367.89l-92.149-82.674l16.893-16.893c1.977-1.977,3.306-4.354,4.006-6.869
			c23.946-5.285,45.982-17.273,63.605-34.883c0.013-0.013,0.027-0.023,0.04-0.037c0.073-0.073,0.134-0.153,0.205-0.227
			c41.715-41.906,48.265-104.108,22.737-152.263c-4.933-9.304-17.484-11.19-24.931-3.742l-66.034,66.033l-25.272-25.273
			l66.031-66.032c7.447-7.447,5.565-19.996-3.741-24.931C394.059-5.852,331.863,1.672,290.509,43.026
			c-27.77,27.77-41.397,66.753-37.269,105.613l-13.493,14.392l-59.52-59.515l-41.435-58.283c-1.502-2.112-3.503-3.817-5.823-4.966
			L65.04,6.659C59.014,3.677,51.759,4.87,47.006,9.623L4.591,52.038c-4.753,4.754-5.947,12.009-2.966,18.035l33.611,67.928
			c1.149,2.322,2.855,4.323,4.967,5.823l58.283,41.435l62.146,62.141L29.277,387.472c-26.197,27.948-25.544,71.572,1.585,98.701
			c27.069,27.069,70.742,27.81,98.703,1.595l96.986-90.951l14.575,14.575c6.12,6.12,16.045,6.121,22.166,0l16.894-16.893
			l82.687,92.152c23.426,26.099,63.939,27.222,88.762,2.397l32.379-32.379C508.815,431.869,507.806,391.397,481.616,367.89z
			 M477.313,109.345c7.482,28.189,2.38,58.757-15.259,83.061c-10.16-10.16-2.479-2.477-33.898-33.904L477.313,109.345z
			 M281.212,164.638c3.348-3.572,4.835-8.502,4.021-13.329c-5.306-31.433,4.953-63.625,27.442-86.115
			c25.862-25.862,62.155-34.191,95.033-25.454l-60.244,60.244c-6.117,6.117-6.12,16.048,0.001,22.168
			c87.775,87.772,71.308,71.304,92.414,92.415c-13.813,9.992-29.986,16.218-47.067,18.044
			c-18.595-18.594-13.323-13.323-21.734-21.733c-6.122-6.12-16.068-6.099-22.166,0l-30.658,30.658l-56.331-56.326L281.212,164.638z
			 M119.724,162.163c-0.619-0.619-1.288-1.185-2.001-1.692l-56.139-39.91L34.71,66.251l26.509-26.508l54.31,26.872l39.91,56.14
			c0.507,0.713,1.073,1.382,1.692,2.001c124.431,124.422,30.905,30.911,138.952,138.941l-37.407,37.406L119.724,162.163z
			 M205.846,353.947c-5.536,5.536-6.142,14.352-1.372,20.599l-96.351,90.354c-15.686,14.707-39.888,14.313-55.096-0.893
			c-15.203-15.203-15.588-39.403-0.882-55.093l130.663-139.335l53.707,53.699L205.846,353.947z M252.209,378.143l-13.113-13.113
			l120.902-120.901l13.113,13.113L252.209,378.143z M461.85,434.501l-32.379,32.379c-12.108,12.11-31.837,11.564-43.265-1.168
			l-83.819-93.413c6.877-6.877,58.006-58.007,64.883-64.884l93.41,83.806C473.406,402.643,473.981,422.369,461.85,434.501z"/>
	</g>
</g>
<g>
</g>
<g>
</g>
<g>
</g>
<g>
</g>
<g>
</g>
<g>
</g>
<g>
</g>
<g>
</g>
<g>
</g>
<g>
</g>
<g>
</g>
<g>
</g>
<g>
</g>
<g>
</g>
<g>
</g>
</svg>
