<?xml version="1.0" encoding="iso-8859-1"?>
<!-- Generator: Adobe Illustrator 18.0.0, SVG Export Plug-In . SVG Version: 6.00 Build 0)  -->
<!DOCTYPE svg PUBLIC "-//W3C//DTD SVG 1.1//EN" "http://www.w3.org/Graphics/SVG/1.1/DTD/svg11.dtd">
<svg version="1.1" id="Capa_1" xmlns="http://www.w3.org/2000/svg" xmlns:xlink="http://www.w3.org/1999/xlink" x="0px" y="0px"
	 viewBox="0 0 264 264" style="enable-background:new 0 0 264 264;" xml:space="preserve">
<g>
	<path d="M246.997,33H17.926C8.225,33,0,40.892,0,50.593v163.071C0,223.385,8.061,231,17.926,231h229.071
		c9.721,0,17.003-7.615,17.003-17.336V50.593C264,40.728,256.718,33,246.997,33z M60.226,43.025c3.554,0,6.444,2.891,6.444,6.444
		s-2.891,6.444-6.444,6.444s-6.444-2.891-6.444-6.444S56.672,43.025,60.226,43.025z M41.726,43.025c3.554,0,6.444,2.891,6.444,6.444
		s-2.891,6.444-6.444,6.444s-6.444-2.891-6.444-6.444S38.172,43.025,41.726,43.025z M23.226,43.025c3.554,0,6.444,2.891,6.444,6.444
		s-2.891,6.444-6.444,6.444s-6.444-2.891-6.444-6.444S19.672,43.025,23.226,43.025z M248,214.5c0,0.276,0.109,0.5-0.167,0.5h-0.5
		h-230.5H16v-0.5V67v-0.5c0-0.276,0.557-0.5,0.833-0.5h231c0.276,0,0.167,0.224,0.167,0.5V214.5z M241.889,56h-70
		c-3.554,0-6.444-2.91-6.444-6.487c0-3.577,2.891-6.487,6.444-6.487l70,0.022c3.554,0,6.444,2.9,6.444,6.466
		C248.333,53.09,245.442,56,241.889,56z"/>
	<path d="M99.478,172.721c-1.919,0-3.839-0.732-5.304-2.196l-24.721-24.721c-2.929-2.93-2.929-7.678,0-10.607l24.721-24.721
		c2.93-2.928,7.678-2.928,10.607,0c2.929,2.93,2.929,7.678,0,10.607L85.363,140.5l19.418,19.417c2.929,2.93,2.929,7.678,0,10.607
		C103.316,171.988,101.396,172.721,99.478,172.721z"/>
	<path d="M165.189,172.721c-1.919,0-3.839-0.732-5.304-2.196c-2.929-2.93-2.929-7.678,0-10.607l19.418-19.417l-19.418-19.417
		c-2.929-2.93-2.929-7.678,0-10.607c2.93-2.928,7.678-2.928,10.607,0l24.721,24.721c2.929,2.93,2.929,7.678,0,10.607l-24.721,24.721
		C169.027,171.988,167.107,172.721,165.189,172.721z"/>
	<path d="M123.945,172.723c-0.8,0-1.612-0.129-2.411-0.4c-3.922-1.331-6.024-5.59-4.692-9.513l16.777-49.441
		c1.332-3.922,5.593-6.02,9.513-4.692c3.922,1.331,6.023,5.59,4.692,9.513l-16.777,49.441
		C129.986,170.754,127.07,172.723,123.945,172.723z"/>
</g>
<g>
</g>
<g>
</g>
<g>
</g>
<g>
</g>
<g>
</g>
<g>
</g>
<g>
</g>
<g>
</g>
<g>
</g>
<g>
</g>
<g>
</g>
<g>
</g>
<g>
</g>
<g>
</g>
<g>
</g>
</svg>
