<svg id="Layer_1" enable-background="new 0 0 512 512" height="512" viewBox="0 0 512 512" width="512" xmlns="http://www.w3.org/2000/svg"><g><path d="m159.609 250.342h130.726c8.284 0 15-6.716 15-15v-13.933c0-.48-.023-.959-.069-1.437-1.911-19.859-11.104-38.232-25.885-51.734-4.855-4.435-10.187-8.207-15.859-11.294 6.107-8.081 9.737-18.134 9.737-29.021 0-26.596-21.637-48.233-48.233-48.233s-48.233 21.637-48.233 48.233c0 10.887 3.63 20.941 9.738 29.022-5.876 3.199-11.388 7.13-16.386 11.777-14.875 13.83-23.927 32.567-25.49 52.758-.03.385-.045.771-.045 1.157v12.705c-.001 8.284 6.715 15 14.999 15zm65.416-140.652c10.054 0 18.233 8.179 18.233 18.233s-8.18 18.233-18.233 18.233-18.233-8.179-18.233-18.233 8.18-18.233 18.233-18.233zm0 67.467c25.368 0 46.469 18.393 50.077 43.185h-100.149c3.613-24.481 24.968-43.185 50.072-43.185z"/><path d="m443.86 62.055h-47.056v-47.055c0-8.284-6.716-15-15-15h-235.246c-3.978 0-7.793 1.58-10.606 4.393l-78.418 78.418c-2.813 2.813-4.394 6.628-4.394 10.607v341.527c0 8.284 6.716 15 15 15h47.056v47.055c0 8.284 6.716 15 15 15h313.664c8.284 0 15-6.716 15-15v-419.945c0-8.284-6.716-15-15-15zm-312.306-10.837-.004 27.192-27.192.003zm-48.414 57.198 63.41-.008c8.283-.001 14.997-6.715 14.998-14.998l.008-63.41h205.248v389.945h-283.664zm345.72 373.584h-283.664v-32.055h236.608c8.284 0 15-6.716 15-15v-342.89h32.056z"/><path d="m325.057 285.965h-200.867c-8.284 0-15 6.716-15 15s6.716 15 15 15h200.867c8.284 0 15-6.716 15-15s-6.716-15-15-15z"/><path d="m325.057 346.019h-200.867c-8.284 0-15 6.716-15 15s6.716 15 15 15h200.867c8.284 0 15-6.716 15-15s-6.716-15-15-15z"/></g></svg>